<?xml version="1.0" encoding="UTF-8"?> <svg xmlns="http://www.w3.org/2000/svg" width="260" height="32" viewBox="0 0 260 32" fill="none"> <mask id="mask0_2_7" style="mask-type:luminance" maskUnits="userSpaceOnUse" x="23" y="0" width="19" height="32"> <path d="M23 0.0910645H42V31.0911H23V0.0910645Z" fill="white"></path> </mask> <g mask="url(#mask0_2_7)"> <path d="M23.5426 23.5925H16V31.0911H23.5426V23.5925ZM35.1681 15.5896C35.0156 15.4765 34.8616 15.3662 34.7061 15.2573C34.6543 15.2215 34.6025 15.1857 34.5507 15.1499C34.4457 15.0783 34.3406 15.0081 34.2341 14.9379C34.129 14.8691 34.0211 14.8004 33.9146 14.7331C33.6469 14.564 33.3735 14.4022 33.0972 14.246C32.9864 14.183 32.8755 14.1229 32.7633 14.0627C32.651 14.0025 32.5388 13.9424 32.4251 13.8851C32.3114 13.8263 32.1977 13.7691 32.0826 13.7146C31.9113 13.6301 31.7372 13.5485 31.563 13.4697C31.3299 13.3637 31.0939 13.2634 30.8564 13.1674C30.796 13.1431 30.737 13.1202 30.6779 13.0958C30.4981 13.0256 30.3182 12.9569 30.1368 12.8924C28.0889 12.1562 25.8827 11.7522 23.5844 11.7479H23.5426V19.4299C30.0102 19.4299 35.2732 24.6625 35.2732 31.0911H43C43 24.7556 39.9188 19.1205 35.1681 15.5896ZM43 0.0910645C43 5.5041 40.752 10.4029 37.1354 13.9152C34.8947 12.2206 32.3459 10.9071 29.5885 10.0778C32.9921 8.03372 35.2732 4.32237 35.2732 0.0910645H43Z" fill="black"></path> </g> <mask id="mask1_2_7" style="mask-type:luminance" maskUnits="userSpaceOnUse" x="0" y="0" width="30" height="32"> <path d="M0 0.0910645H30V31.0911H0V0.0910645Z" fill="white"></path> </mask> <g mask="url(#mask1_2_7)"> <path d="M7.54918 10.1699L0.0479911 30.0885C-0.134544 30.574 0.226214 31.0911 0.747949 31.0911H7.12949C7.44569 31.0911 7.72884 30.892 7.8352 30.5955L9.61599 25.594L11.7719 19.1875C11.8237 19.0371 11.8237 18.8738 11.7734 18.722L8.96203 10.1986C8.74069 9.53114 7.79639 9.51252 7.54918 10.1699ZM18.142 0.0910645H12.4503C11.9358 0.0910645 11.5736 0.595223 11.7432 1.07646L14.9397 10.2158L14.944 10.2043L20.1887 25.594L22.0068 30.5998C22.1146 30.8948 22.3963 31.0911 22.7111 31.0911H29.2507C29.7725 31.0911 30.1347 30.574 29.9521 30.0885L18.8434 0.573739C18.7341 0.28442 18.4539 0.0910645 18.142 0.0910645Z" fill="#FF1616"></path> </g> <path d="M63.9077 25.5939H53.9715L52.0775 30.0911H47L56.539 9.09106H61.4322L71 30.0911H65.8016L63.9077 25.5939ZM62.3476 21.899L58.9511 13.8594L55.5603 21.899H62.3476Z" fill="#FF1616"></path> <path d="M93 9.09106V30.0911H87.9545V21.4809H78.0455V30.0911H73V9.09106H78.0455V17.3736H87.9545V9.09106H93Z" fill="#FF1616"></path> <path d="M115 13.0515H107.985V30.0911H102.98V13.0515H96V9.09106H115V13.0515Z" fill="#FF1616"></path> <path d="M118 9.09106H122.977V22.769L133.297 9.09106H138V30.0911H133.052V16.4413L122.726 30.0911H118V9.09106Z" fill="#FF1616"></path> <path d="M151.547 21.6334H148.04V30.0911H143V9.09106H148.04V17.5826H151.671L157.43 9.09106H162.782L155.614 19.2323L163 30.0911H157.241L151.547 21.6334Z" fill="black"></path> <path d="M179.908 25.5939H169.971L168.077 30.0911H163L172.539 9.09106H177.432L187 30.0911H181.802L179.908 25.5939ZM178.348 21.899L174.951 13.8594L171.56 21.899H178.348Z" fill="black"></path> <path d="M200.35 31.0911C198.211 31.0911 196.279 30.6205 194.554 29.6778C192.829 28.7366 191.471 27.4292 190.483 25.7584C189.493 24.0877 189 22.1995 189 20.0939C189 17.9855 189.493 16.0944 190.483 14.4237C191.471 12.753 192.829 11.447 194.554 10.5043C196.279 9.56311 198.22 9.09106 200.379 9.09106C202.194 9.09106 203.835 9.41577 205.301 10.0638C206.77 10.7132 208.003 11.6458 209 12.8617L205.888 15.774C204.469 14.1147 202.713 13.2851 200.615 13.2851C199.319 13.2851 198.16 13.5755 197.142 14.1548C196.127 14.7312 195.334 15.5366 194.763 16.5693C194.195 17.5993 193.911 18.7751 193.911 20.0939C193.911 21.4099 194.195 22.5857 194.763 23.6185C195.334 24.6484 196.127 25.4537 197.142 26.0331C198.16 26.6095 199.319 26.897 200.615 26.897C202.713 26.897 204.469 26.056 205.888 24.3738L209 27.2918C208.003 28.5277 206.767 29.4704 205.29 30.1184C203.813 30.7664 202.166 31.0911 200.35 31.0911Z" fill="black"></path> <path d="M222.35 31.0911C220.211 31.0911 218.279 30.6205 216.554 29.6778C214.829 28.7366 213.471 27.4292 212.483 25.7584C211.493 24.0877 211 22.1995 211 20.0939C211 17.9855 211.493 16.0944 212.483 14.4237C213.471 12.753 214.829 11.447 216.554 10.5043C218.279 9.56311 220.22 9.09106 222.379 9.09106C224.194 9.09106 225.835 9.41577 227.301 10.0638C228.77 10.7132 230.003 11.6458 231 12.8617L227.888 15.774C226.469 14.1147 224.713 13.2851 222.615 13.2851C221.319 13.2851 220.16 13.5755 219.142 14.1548C218.127 14.7312 217.334 15.5366 216.763 16.5693C216.195 17.5993 215.911 18.7751 215.911 20.0939C215.911 21.4099 216.195 22.5857 216.763 23.6185C217.334 24.6484 218.127 25.4537 219.142 26.0331C220.16 26.6095 221.319 26.897 222.615 26.897C224.713 26.897 226.469 26.056 227.888 24.3738L231 27.2918C230.003 28.5277 228.767 29.4704 227.29 30.1184C225.813 30.7664 224.166 31.0911 222.35 31.0911Z" fill="black"></path> <path d="M248.908 25.5939H238.971L237.077 30.0911H232L241.539 9.09106H246.432L256 30.0911H250.802L248.908 25.5939ZM247.348 21.899L243.951 13.8594L240.56 21.899H247.348Z" fill="black"></path> <path d="M255.018 3.09106C255.953 3.09106 256.8 3.30989 257.56 3.74454C258.318 4.1762 258.915 4.77422 259.347 5.53711C259.781 6.297 260 7.13783 260 8.06109C260 8.98885 259.778 9.83867 259.335 10.609C258.891 11.3764 258.287 11.982 257.524 12.4256C256.76 12.8692 255.914 13.0911 254.988 13.0911C254.06 13.0911 253.216 12.8692 252.458 12.4256C251.698 11.982 251.099 11.3794 250.659 10.615C250.219 9.84766 250 9.00683 250 8.09106C250 7.1768 250.219 6.33747 250.659 5.57308C251.099 4.80569 251.7 4.20018 252.464 3.75653C253.231 3.31289 254.083 3.09106 255.018 3.09106ZM254.988 12.1678C255.743 12.1678 256.43 11.9879 257.05 11.6282C257.669 11.2655 258.155 10.7694 258.507 10.1414C258.862 9.51043 259.041 8.81648 259.041 8.06109C259.041 7.2982 258.867 6.61025 258.519 5.99874C258.174 5.38423 257.695 4.89862 257.08 4.5419C256.469 4.18669 255.781 4.00833 255.018 4.00833C254.251 4.00833 253.558 4.18819 252.944 4.5479C252.332 4.90761 251.85 5.39922 251.499 6.02272C251.151 6.64622 250.977 7.33567 250.977 8.09106C250.977 8.84646 251.151 9.53591 251.499 10.1594C251.85 10.7829 252.329 11.2745 252.938 11.6342C253.549 11.9909 254.233 12.1678 254.988 12.1678ZM257.62 7.2997C257.62 7.69538 257.531 8.03711 257.356 8.32488C257.184 8.61265 256.927 8.83747 256.589 8.99634L257.794 10.8369H256.319L255.288 9.25413H254.311V10.8369H252.836V5.34526H255.228C255.974 5.34526 256.56 5.52362 256.984 5.87883C257.407 6.23105 257.62 6.70467 257.62 7.2997ZM255.132 8.14502C255.459 8.14502 255.715 8.07308 255.899 7.92919C256.082 7.78231 256.175 7.57248 256.175 7.2997C256.175 7.02392 256.082 6.81109 255.899 6.65821C255.715 6.50683 255.459 6.43039 255.132 6.43039H254.293V8.14502H255.132Z" fill="black"></path> </svg> 